{"accessors" : [{"bufferView" : 0, "byteOffset" : 0, "componentType" : 5123, "count" : 3300, "type" : "SCALAR", "max" : [3228], "min" : [0]}, {"bufferView" : 1, "byteOffset" : 0, "componentType" : 5126, "count" : 3229, "type" : "VEC3", "max" : [1.7999999523162842, 3, 0.10000000149011612], "min" : [-2, 0, -0.20000000298023224], "name" : "POSITION"}, {"bufferView" : 1, "byteOffset" : 12, "componentType" : 5126, "count" : 3229, "type" : "VEC2", "max" : [0.9589840173721313, -0.5], "min" : [0.0019531199941411614, -0.5], "name" : "TEXCOORD_0"}, {"bufferView" : 1, "byteOffset" : 20, "componentType" : 5126, "count" : 3229, "type" : "VEC3", "max" : [1.0000044107437134, 1.0000044107437134, 1.0000044107437134], "min" : [-1.0000044107437134, -1.0000044107437134, -1.0000044107437134], "name" : "NORMAL"}], "asset" : {"generator" : "Aspose.3D 23.9.0", "version" : "2.0"}, "buffers" : [{"uri" : "data:application/octet-stream;base64,", "byteLength" : 112208}], "bufferViews" : [{"buffer" : 0, "byteOffset" : 0, "byteLength" : 6600, "target" : 34963}, {"buffer" : 0, "byteOffset" : 6604, "byteLength" : 105600, "byteStride" : 32, "target" : 34962}], "meshes" : [{"primitives" : [{"attributes" : {"POSITION" : 1, "TEXCOORD_0" : 2, "NORMAL" : 3}, "indices" : 0, "mode" : 4}], "name" : ""}], "nodes" : [{"mesh" : 0, "name" : "icon"}], "scene" : 0, "scenes" : [{"nodes" : [0]}]}