<svg width="266" height="48" viewBox="0 0 266 48" fill="none" xmlns="http://www.w3.org/2000/svg">
<path fill-rule="evenodd" clip-rule="evenodd" d="M146.465 47.5239H160.349L166.31 29.4924L152.606 30.676L146.465 47.5239ZM172.694 18.4043L171.335 14.2909L169.877 18.7013L156.455 20.1157L163.786 0H179.018L196.271 47.5239H182.32L176.081 28.6484L176.133 28.6439L172.716 18.4021L172.694 18.4043ZM23.4967 34.176L23.4538 34.1136L15.5685 47.5281H0.539168L15.9728 23.1932L0 0.0042303H15.5685L24.5321 13.0817L32.2153 0.0042303H47.2446L32.0131 23.9347L37.9793 32.6012L23.5273 34.1242L23.4967 34.176ZM28.4682 41.3987L32.687 47.5281H48.2555L43.1621 40.1295L28.4682 41.3987ZM52.5454 39.319L49.5534 47.5281H63.437L66.5505 38.1093L52.5454 39.319ZM79.0433 28.2737L74.4225 14.2951L69.4682 29.2827L55.6734 30.7365L66.8742 0.0042303H82.1057L91.8778 26.9211L79.0433 28.2737ZM81.8575 36.7871L85.4081 47.5281H99.3591L95.046 35.6479L81.8575 36.7871ZM101.643 35.0781V47.5281H114.852V33.9371L101.643 35.0781ZM114.862 33.9331L130.96 32.5638V47.5281H144.169V0.0042303H130.96V22.7752L114.852 24.4487V0.0042303H101.643V25.8921L114.862 24.499V33.9331ZM208.131 14.6984V0.0042303H194.989V16.0728L208.131 14.6984ZM208.131 25.9177V27.5748C208.131 30.1364 208.716 32.1138 209.884 33.5069C211.097 34.9 212.917 35.5966 215.343 35.5966C217.769 35.5966 219.589 34.9 220.802 33.5069C222.06 32.0688 222.689 30.0915 222.689 27.5748V24.6775L235.899 23.5521V27.5748C235.899 31.934 234.978 35.664 233.135 38.7649C231.293 41.8208 228.777 44.1352 225.587 45.7081C222.442 47.236 218.937 48 215.073 48C211.209 48 207.75 47.236 204.694 45.7081C201.684 44.1352 199.303 41.8208 197.55 38.7649C195.843 35.709 194.989 31.9789 194.989 27.5748V27.0374L208.131 25.9177ZM235.899 11.7946L222.689 13.176V0.0042303H235.899V11.7946Z" fill="white"/>
<path d="M264.19 13.7971C265.16 14.2398 265.272 15.5356 264.393 16.1296L250.741 25.3481C249.862 25.942 248.65 25.3886 248.56 24.352L247.164 8.26246C247.074 7.22579 248.174 6.48333 249.143 6.92605L264.19 13.7971Z" fill="white"/>
</svg>
